<?xml version="1.0" encoding="UTF-8" standalone="no"?>
<!-- Created with Inkscape (http://www.inkscape.org/) -->

<svg
   width="114.74172mm"
   height="87.962608mm"
   viewBox="0 0 114.74172 87.962608"
   version="1.1"
   id="svg1"
   xml:space="preserve"
   xmlns="http://www.w3.org/2000/svg"
   xmlns:svg="http://www.w3.org/2000/svg"><defs
     id="defs1" /><g
     id="layer1"
     transform="translate(-0.17135038,-0.03992846)"><path
       style="fill:#000000"
       d="m 50.180612,87.784392 c -0.394473,-0.0441 -1.639369,-0.17563 -2.766436,-0.29237 -19.955137,-2.06693 -29.816032,-12.95221 -29.816032,-32.91342 v -7.307781 h -0.60328 c -2.369802,0 -11.4985053,-1.657282 -12.7459243,-2.313975 -4.35925197,-2.294891 -5.436513,-7.464125 -2.190487,-10.511051 2.31531,-2.173296 6.107314,-2.783263 11.5324833,-1.855068 1.245958,0.213171 2.623483,0.414708 3.061167,0.44786 l 0.79579,0.06028 -0.04057,-1.873075 c -0.02231,-1.030191 -0.09227,-1.953987 -0.155458,-2.052879 -0.06319,-0.09889 0.05804,-0.132325 0.269386,-0.07429 14.266205,3.917078 41.479348,5.378303 61.450788,3.299636 8.80072,-0.915997 14.11187,-1.743078 16.68193,-2.597799 1.70536,-0.56715 1.65852,-0.607126 1.65852,1.415424 v 1.783882 h 0.7336 c 0.40348,0 1.855865,-0.142184 3.227511,-0.315964 9.25074,-1.172022 14.3006,1.48669 13.56978,7.144381 -0.52554,4.068474 -3.33107,5.652875 -12.29131,6.941403 -2.697206,0.387872 -4.952781,0.752388 -5.012381,0.810035 -0.0596,0.05765 -0.23912,3.690375 -0.24429,8.074139 -0.0075,6.352085 -0.07397,6.915131 -1.301677,12.658439 -0.903406,4.22618 -3.628109,7.316778 -5.764636,9.14349 -3.707366,3.169765 -8.677677,6.831671 -15.484017,8.741871 -4.77713,1.34069 -18.7102,2.24076 -24.564457,1.58684 z m 16.291237,-4.9135 c 14.26611,-1.6563 23.83895,-9.08396 25.81202,-20.02781 0.50794,-2.8173 0.47104,-28.55603 -0.0407,-28.366104 -0.19585,0.07269 -0.91051,0.182374 -1.58814,0.243737 l -1.23205,0.111569 0.0216,10.431214 c 0.0375,18.159884 -0.17023,20.068564 -2.70034,24.807934 -3.06949,5.74974 -10.96148,10.71481 -14.48491,9.11285 -0.52768,-0.23991 -1.39941,-0.54477 -1.93718,-0.67747 l -0.97777,-0.24126 1.81192,-1.07097 c 4.53898,-2.68284 7.4182,-6.13307 8.52315,-10.21345 0.70725,-2.61175 0.82915,-5.28701 0.82933,-18.200124 l 1.7e-4,-12.463562 -0.76846,0.127325 c -3.14313,0.520784 -12.29242,1.17223 -19.92858,1.418953 -5.52502,0.178513 -14.496727,-0.292488 -22.951174,-1.2049 -8.084024,-0.872437 -9.900187,-1.105717 -11.637213,-1.49476 -3.406239,-0.762899 -3.076583,-2.443094 -2.900353,14.782581 l 0.125724,12.288967 0.664979,2.27675 c 4.261681,14.59106 19.657948,21.11011 43.357977,18.35853 z M 17.393223,40.395243 17.290762,38.473998 15.446471,38.0246 C 8.9257967,36.43571 5.0979507,36.74733 5.0979507,38.867061 c 0,1.596386 1.634917,2.237558 7.2702093,2.851187 2.138955,0.232912 3.929454,0.462596 3.978886,0.510409 0.04943,0.04781 0.328099,0.08714 0.619257,0.08738 l 0.52938,4.49e-4 z m 82.890617,1.631873 c 1.01436,-0.157785 3.0209,-0.426067 4.45897,-0.596183 4.56705,-0.540256 6.4634,-2.06274 4.40387,-3.53565 -1.539,-1.100648 -4.32949,-1.073742 -9.836211,0.09484 l -1.99798,0.423993 v 1.950737 1.950736 l 0.56353,-7.97e-4 c 0.30994,-4.39e-4 1.39346,-0.129894 2.407821,-0.287678 z M 51.102758,30.28591 C 33.099037,29.743037 17.152239,27.027834 15.220634,24.176391 11.880929,19.246304 31.874375,10.251124 49.156006,8.9086486 c 2.17101,-0.168649 2.11338,-0.126146 1.536628,-1.133296 -3.283269,-5.733384 7.478555,-10.634478 12.542595,-5.712082 1.56551,1.521727 2.15271,4.128007 1.296,5.752295 l -0.40371,0.765419 1.47954,0.133124 c 16.80666,1.5121904 35.692481,9.5054414 34.688541,14.6816084 -0.385336,1.986769 -2.130661,3.011584 -6.397191,3.756301 -0.99628,0.173899 -2.91799,0.530558 -4.27047,0.792575 -8.16784,1.582363 -26.58183,2.701449 -38.525181,2.341317 z m 21.209341,-4.523814 c 9.6593,-0.773238 15.68441,-1.663132 19.6212,-2.898004 1.77359,-0.556328 1.56173,-0.896004 -1.73923,-2.788506 -5.35982,-3.072884 -14.34172,-5.730651 -23.30378,-6.895644 -1.79857,-0.233799 -3.34316,-0.468748 -3.43243,-0.522108 -0.0893,-0.05336 -0.16229,0.257094 -0.16229,0.689897 0,1.794328 -3.116,2.709186 -7.54884,2.21634 -2.76041,-0.306903 -3.509338,-0.859647 -3.515762,-2.59479 -0.0028,-0.751328 -13.191219,1.625913 -18.566519,3.346651 -6.358929,2.035616 -11.967881,4.760446 -11.967881,5.813999 0,1.54334 14.706766,3.512063 31.455402,4.210781 3.98098,0.166078 13.41715,-0.118885 19.16013,-0.578616 z M 57.083359,6.4265226 c 1.29363,-0.474088 1.83449,-1.417881 1.177,-2.053836 -0.50729,-0.490679 -2.75103,-0.425915 -3.44138,0.09933 -1.46538,1.114908 0.32905,2.663763 2.26438,1.954503 z"
       id="path1" /></g></svg>
